<svg width="26" height="26" viewBox="0 0 26 26" fill="none" xmlns="http://www.w3.org/2000/svg">
<path fill-rule="evenodd" clip-rule="evenodd" d="M9.88555 18.5517C10.4027 18.5517 10.8987 18.7571 11.2644 19.1228C11.6301 19.4885 11.8355 19.9845 11.8355 20.5017C11.8355 21.0189 11.6301 21.5149 11.2644 21.8806C10.8987 22.2462 10.4027 22.4517 9.88555 22.4517C9.36837 22.4517 8.87238 22.2462 8.50669 21.8806C8.14099 21.5149 7.93555 21.0189 7.93555 20.5017C7.93555 19.9845 8.14099 19.4885 8.50669 19.1228C8.87238 18.7571 9.36837 18.5517 9.88555 18.5517ZM11.8355 13.135C11.8355 14.2184 10.9689 15.085 9.88555 15.085C8.80221 15.085 7.93555 14.2184 7.93555 13.135C7.93555 12.0517 8.80221 11.185 9.88555 11.185C10.9689 11.185 11.8355 12.0517 11.8355 13.135ZM11.8355 5.76836C11.8355 6.85169 10.9689 7.71836 9.88555 7.71836C8.80221 7.71836 7.93555 6.85169 7.93555 5.76836C7.93555 4.68503 8.80221 3.81836 9.88555 3.81836C10.9689 3.81836 11.8355 4.68503 11.8355 5.76836ZM16.3855 18.5517C16.9027 18.5517 17.3987 18.7571 17.7644 19.1228C18.1301 19.4885 18.3355 19.9845 18.3355 20.5017C18.3355 21.0189 18.1301 21.5149 17.7644 21.8806C17.3987 22.2462 16.9027 22.4517 16.3855 22.4517C15.8684 22.4517 15.3724 22.2462 15.0067 21.8806C14.641 21.5149 14.4355 21.0189 14.4355 20.5017C14.4355 19.9845 14.641 19.4885 15.0067 19.1228C15.3724 18.7571 15.8684 18.5517 16.3855 18.5517ZM18.3355 13.135C18.3355 14.2184 17.4689 15.085 16.3855 15.085C15.3022 15.085 14.4355 14.2184 14.4355 13.135C14.4355 12.0517 15.3022 11.185 16.3855 11.185C17.4689 11.185 18.3355 12.0517 18.3355 13.135ZM18.3355 5.76836C18.3355 6.85169 17.4689 7.71836 16.3855 7.71836C15.3022 7.71836 14.4355 6.85169 14.4355 5.76836C14.4355 4.68503 15.3022 3.81836 16.3855 3.81836C17.4689 3.81836 18.3355 4.68503 18.3355 5.76836Z" fill="white"/>
</svg>
