<svg width="130" height="25" viewBox="0 0 130 25" fill="none" xmlns="http://www.w3.org/2000/svg">
<path d="M10.3479 6.36986C11.9749 6.36986 13.4501 6.74832 14.7734 7.50524C16.1184 8.24053 17.1705 9.28941 17.9298 10.6519C18.6891 11.9927 19.0687 13.5606 19.0687 15.3556C19.0687 17.1506 18.6891 18.7293 17.9298 20.0918C17.1705 21.4326 16.1184 22.4815 14.7734 23.2384C13.4501 23.9737 11.9749 24.3413 10.3479 24.3413C7.93987 24.3413 6.10676 23.5844 4.84853 22.0706V24.0818H0V0.0117188H5.07631V8.47842C6.35624 7.07271 8.11342 6.36986 10.3479 6.36986ZM9.46927 20.1891C10.7709 20.1891 11.8339 19.7565 12.6582 18.8915C13.5043 18.0048 13.9273 16.8262 13.9273 15.3556C13.9273 13.885 13.5043 12.7172 12.6582 11.8521C11.8339 10.9654 10.7709 10.5221 9.46927 10.5221C8.16766 10.5221 7.09382 10.9654 6.24777 11.8521C5.42341 12.7172 5.01123 13.885 5.01123 15.3556C5.01123 16.8262 5.42341 18.0048 6.24777 18.8915C7.09382 19.7565 8.16766 20.1891 9.46927 20.1891Z" fill="white"/>
<path d="M39.3807 6.62937V24.0818H34.5647V22.0057C33.8922 22.7626 33.0896 23.3465 32.1567 23.7574C31.2239 24.1467 30.2151 24.3413 29.1305 24.3413C26.8309 24.3413 25.0087 23.6817 23.6637 22.3625C22.3187 21.0433 21.6462 19.0861 21.6462 16.491V6.62937H26.7225V15.7449C26.7225 18.5563 27.9048 19.962 30.2694 19.962C31.4842 19.962 32.4604 19.5727 33.198 18.7942C33.9356 17.994 34.3044 16.8154 34.3044 15.2583V6.62937H39.3807Z" fill="white"/>
<path d="M61.1926 0.0117188V24.0818H56.3441V22.0706C55.0859 23.5844 53.2636 24.3413 50.8773 24.3413C49.2286 24.3413 47.7317 23.9737 46.3867 23.2384C45.0634 22.5031 44.0221 21.4542 43.2628 20.0918C42.5036 18.7293 42.1239 17.1506 42.1239 15.3556C42.1239 13.5606 42.5036 11.9819 43.2628 10.6194C44.0221 9.25697 45.0634 8.20809 46.3867 7.4728C47.7317 6.73751 49.2286 6.36986 50.8773 6.36986C53.1117 6.36986 54.8581 7.07271 56.1163 8.47842V0.0117188H61.1926ZM51.7559 20.1891C53.0358 20.1891 54.0988 19.7565 54.9449 18.8915C55.7909 18.0048 56.2139 16.8262 56.2139 15.3556C56.2139 13.885 55.7909 12.7172 54.9449 11.8521C54.0988 10.9654 53.0358 10.5221 51.7559 10.5221C50.4543 10.5221 49.3804 10.9654 48.5344 11.8521C47.6883 12.7172 47.2653 13.885 47.2653 15.3556C47.2653 16.8262 47.6883 18.0048 48.5344 18.8915C49.3804 19.7565 50.4543 20.1891 51.7559 20.1891Z" fill="white"/>
<path d="M83 0.0117188V24.0818H78.1514V22.0706C76.8932 23.5844 75.0709 24.3413 72.6846 24.3413C71.0359 24.3413 69.5391 23.9737 68.1941 23.2384C66.8707 22.5031 65.8294 21.4542 65.0702 20.0918C64.3109 18.7293 63.9312 17.1506 63.9312 15.3556C63.9312 13.5606 64.3109 11.9819 65.0702 10.6194C65.8294 9.25697 66.8707 8.20809 68.1941 7.4728C69.5391 6.73751 71.0359 6.36986 72.6846 6.36986C74.9191 6.36986 76.6654 7.07271 77.9237 8.47842V0.0117188H83ZM73.5632 20.1891C74.8432 20.1891 75.9061 19.7565 76.7522 18.8915C77.5982 18.0048 78.0213 16.8262 78.0213 15.3556C78.0213 13.885 77.5982 12.7172 76.7522 11.8521C75.9061 10.9654 74.8432 10.5221 73.5632 10.5221C72.2616 10.5221 71.1878 10.9654 70.3417 11.8521C69.4957 12.7172 69.0726 13.885 69.0726 15.3556C69.0726 16.8262 69.4957 18.0048 70.3417 18.8915C71.1878 19.7565 72.2616 20.1891 73.5632 20.1891Z" fill="white"/>
<path d="M86.9751 8.28898L92.0514 6.07617V24.0818H86.9751V8.28898Z" fill="white"/>
<path d="M113.188 15.4205C113.188 15.4854 113.156 15.9395 113.091 16.7829H99.8468C100.085 17.8642 100.649 18.7185 101.539 19.3456C102.428 19.9728 103.535 20.2864 104.858 20.2864C105.769 20.2864 106.572 20.1566 107.266 19.8971C107.982 19.616 108.644 19.1835 109.251 18.5995L111.952 21.5191C110.303 23.4006 107.895 24.3413 104.728 24.3413C102.754 24.3413 101.007 23.9629 99.4888 23.2059C97.9703 22.4274 96.7988 21.3569 95.9745 19.9944C95.1501 18.632 94.7379 17.0857 94.7379 15.3556C94.7379 13.6471 95.1393 12.1116 95.9419 10.7492C96.7663 9.3651 97.8835 8.2946 99.2936 7.53768C100.725 6.75913 102.32 6.36986 104.077 6.36986C105.791 6.36986 107.342 6.73751 108.73 7.4728C110.119 8.20809 111.203 9.26778 111.984 10.6519C112.787 12.0143 113.188 13.6039 113.188 15.4205ZM104.11 10.1977C102.96 10.1977 101.994 10.5221 101.214 11.1709C100.433 11.8197 99.9553 12.7064 99.7817 13.8309H108.405C108.231 12.728 107.754 11.8521 106.973 11.2033C106.192 10.5329 105.238 10.1977 104.11 10.1977Z" fill="white"/>
<path d="M121.735 24.3413C120.281 24.3413 118.86 24.1683 117.472 23.8223C116.084 23.4547 114.977 23.0005 114.153 22.4598L115.845 18.8266C116.626 19.324 117.57 19.7349 118.676 20.0593C119.782 20.3621 120.867 20.5135 121.93 20.5135C124.078 20.5135 125.151 19.9836 125.151 18.9239C125.151 18.4265 124.859 18.0697 124.273 17.8534C123.687 17.6372 122.787 17.4533 121.572 17.302C120.14 17.0857 118.958 16.837 118.025 16.5559C117.092 16.2747 116.279 15.7773 115.585 15.0636C114.912 14.35 114.576 13.3335 114.576 12.0143C114.576 10.9114 114.89 9.9382 115.52 9.09477C116.17 8.22972 117.103 7.5593 118.318 7.08352C119.555 6.60775 121.008 6.36986 122.678 6.36986C123.915 6.36986 125.141 6.51043 126.355 6.79157C127.592 7.05109 128.612 7.41873 129.414 7.89451L127.722 11.4953C126.182 10.6302 124.501 10.1977 122.678 10.1977C121.594 10.1977 120.78 10.3491 120.238 10.6519C119.696 10.9546 119.424 11.3439 119.424 11.8197C119.424 12.3603 119.717 12.7388 120.303 12.9551C120.889 13.1713 121.821 13.3768 123.101 13.5714C124.533 13.8093 125.705 14.0688 126.616 14.35C127.527 14.6095 128.319 15.0961 128.991 15.8097C129.664 16.5234 130 17.5182 130 18.7942C130 19.8755 129.675 20.8379 129.024 21.6813C128.373 22.5247 127.418 23.1843 126.16 23.6601C124.924 24.1143 123.449 24.3413 121.735 24.3413Z" fill="white"/>
<path d="M86.9883 2.03536V5.14591L92.0721 2.95984V0L86.9883 2.03536Z" fill="#93F42B"/>
<path d="M9.4043 2.07617C13.2767 2.07617 15.2129 2.48999 18.2556 4.97941" stroke="#93F42B" stroke-width="3.31922"/>
</svg>
