<svg width="85" height="17" viewBox="0 0 85 17" fill="none" xmlns="http://www.w3.org/2000/svg">
<path d="M6.76591 5.18726C7.82974 5.18726 8.79427 5.43604 9.65951 5.93359C10.5389 6.41693 11.2269 7.1064 11.7233 8.00199C12.2198 8.88337 12.468 9.91402 12.468 11.0939C12.468 12.2738 12.2198 13.3116 11.7233 14.2072C11.2269 15.0886 10.5389 15.778 9.65951 16.2756C8.79427 16.7589 7.82974 17.0006 6.76591 17.0006C5.19146 17.0006 3.99288 16.503 3.17019 15.5079V16.83H0V1.00781H3.31913V6.5733C4.156 5.64928 5.30493 5.18726 6.76591 5.18726ZM6.19145 14.2712C7.04251 14.2712 7.73754 13.9868 8.27654 13.4182C8.82973 12.8354 9.10632 12.0606 9.10632 11.0939C9.10632 10.1273 8.82973 9.3596 8.27654 8.79097C7.73754 8.20812 7.04251 7.9167 6.19145 7.9167C5.34039 7.9167 4.63827 8.20812 4.08508 8.79097C3.54608 9.3596 3.27657 10.1273 3.27657 11.0939C3.27657 12.0606 3.54608 12.8354 4.08508 13.4182C4.63827 13.9868 5.34039 14.2712 6.19145 14.2712Z" fill="#171717"/>
<path d="M25.7489 5.35785V16.83H22.6V15.4653C22.1603 15.9628 21.6355 16.3467 21.0256 16.6168C20.4156 16.8727 19.7561 17.0006 19.0468 17.0006C17.5433 17.0006 16.3518 16.567 15.4724 15.6999C14.593 14.8327 14.1533 13.5462 14.1533 11.8403V5.35785H17.4724V11.3498C17.4724 13.1979 18.2454 14.1219 19.7915 14.1219C20.5858 14.1219 21.2241 13.866 21.7064 13.3542C22.1887 12.8283 22.4298 12.0535 22.4298 11.03V5.35785H25.7489Z" fill="#171717"/>
<path d="M40.0106 1.00781V16.83H36.8404V15.5079C36.0177 16.503 34.8262 17.0006 33.2659 17.0006C32.1879 17.0006 31.2092 16.7589 30.3298 16.2756C29.4645 15.7923 28.7837 15.1028 28.2872 14.2072C27.7908 13.3116 27.5426 12.2738 27.5426 11.0939C27.5426 9.91402 27.7908 8.87626 28.2872 7.98067C28.7837 7.08507 29.4645 6.39561 30.3298 5.91227C31.2092 5.42893 32.1879 5.18726 33.2659 5.18726C34.7269 5.18726 35.8687 5.64928 36.6914 6.5733V1.00781H40.0106ZM33.8404 14.2712C34.6773 14.2712 35.3723 13.9868 35.9255 13.4182C36.4787 12.8354 36.7553 12.0606 36.7553 11.0939C36.7553 10.1273 36.4787 9.3596 35.9255 8.79097C35.3723 8.20812 34.6773 7.9167 33.8404 7.9167C32.9893 7.9167 32.2872 8.20812 31.734 8.79097C31.1808 9.3596 30.9042 10.1273 30.9042 11.0939C30.9042 12.0606 31.1808 12.8354 31.734 13.4182C32.2872 13.9868 32.9893 14.2712 33.8404 14.2712Z" fill="#171717"/>
<path d="M54.2692 1.00781V16.83H51.099V15.5079C50.2763 16.503 49.0848 17.0006 47.5246 17.0006C46.4466 17.0006 45.4678 16.7589 44.5884 16.2756C43.7232 15.7923 43.0423 15.1028 42.5459 14.2072C42.0494 13.3116 41.8012 12.2738 41.8012 11.0939C41.8012 9.91402 42.0494 8.87626 42.5459 7.98067C43.0423 7.08507 43.7232 6.39561 44.5884 5.91227C45.4678 5.42893 46.4466 5.18726 47.5246 5.18726C48.9856 5.18726 50.1274 5.64928 50.9501 6.5733V1.00781H54.2692ZM48.099 14.2712C48.9359 14.2712 49.6309 13.9868 50.1841 13.4182C50.7373 12.8354 51.0139 12.0606 51.0139 11.0939C51.0139 10.1273 50.7373 9.3596 50.1841 8.79097C49.6309 8.20812 48.9359 7.9167 48.099 7.9167C47.248 7.9167 46.5459 8.20812 45.9927 8.79097C45.4395 9.3596 45.1629 10.1273 45.1629 11.0939C45.1629 12.0606 45.4395 12.8354 45.9927 13.4182C46.5459 13.9868 47.248 14.2712 48.099 14.2712Z" fill="#171717"/>
<path d="M56.8684 6.44878L60.1875 4.99421V16.83H56.8684V6.44878Z" fill="#171717"/>
<path d="M74.0078 11.1366C74.0078 11.1792 73.9865 11.4778 73.944 12.0322H65.2844C65.4405 12.743 65.8093 13.3045 66.3908 13.7167C66.9724 14.129 67.6958 14.3351 68.561 14.3351C69.1568 14.3351 69.6816 14.2498 70.1355 14.0793C70.6036 13.8944 71.0362 13.6101 71.4333 13.2263L73.1993 15.1454C72.1213 16.3822 70.5468 17.0006 68.4759 17.0006C67.1851 17.0006 66.0433 16.7518 65.0504 16.2543C64.0575 15.7425 63.2915 15.0388 62.7525 14.1432C62.2135 13.2476 61.944 12.2312 61.944 11.0939C61.944 9.97088 62.2064 8.96156 62.7313 8.06596C63.2703 7.15615 64.0008 6.45247 64.9227 5.95491C65.8589 5.44315 66.9015 5.18726 68.0504 5.18726C69.1709 5.18726 70.1851 5.42893 71.0929 5.91227C72.0007 6.39561 72.7099 7.09218 73.2206 8.00199C73.7454 8.89759 74.0078 9.94245 74.0078 11.1366ZM68.0717 7.70346C67.3199 7.70346 66.6887 7.9167 66.1781 8.34317C65.6674 8.76965 65.3554 9.35249 65.2419 10.0917H70.8801C70.7667 9.36671 70.4546 8.79097 69.944 8.36449C69.4333 7.9238 68.8092 7.70346 68.0717 7.70346Z" fill="#171717"/>
<path d="M79.5958 17.0006C78.6454 17.0006 77.7164 16.8869 76.8086 16.6594C75.9008 16.4178 75.1774 16.1192 74.6384 15.7638L75.7447 13.3756C76.2554 13.7025 76.8724 13.9726 77.5958 14.1859C78.3192 14.3849 79.0284 14.4844 79.7234 14.4844C81.1277 14.4844 81.8298 14.1361 81.8298 13.4395C81.8298 13.1126 81.6383 12.878 81.2553 12.7359C80.8724 12.5937 80.2837 12.4729 79.4894 12.3734C78.5532 12.2312 77.7802 12.0677 77.1703 11.8829C76.5603 11.6981 76.0284 11.3711 75.5745 10.902C75.1348 10.4329 74.915 9.76475 74.915 8.89759C74.915 8.17258 75.1206 7.53287 75.532 6.97845C75.9575 6.40982 76.5674 5.96913 77.3618 5.65638C78.1703 5.34364 79.1206 5.18726 80.2128 5.18726C81.0213 5.18726 81.8227 5.27966 82.617 5.46447C83.4255 5.63506 84.0922 5.87673 84.617 6.18948L83.5107 8.55641C82.5036 7.98778 81.4043 7.70346 80.2128 7.70346C79.5036 7.70346 78.9717 7.80297 78.6171 8.00199C78.2625 8.20101 78.0852 8.4569 78.0852 8.76965C78.0852 9.12504 78.2766 9.37382 78.6596 9.51598C79.0426 9.65813 79.6525 9.79318 80.4894 9.92113C81.4256 10.0775 82.1915 10.2481 82.7873 10.4329C83.383 10.6035 83.9007 10.9233 84.3404 11.3925C84.7801 11.8616 85 12.5155 85 13.3542C85 14.065 84.7872 14.6976 84.3617 15.2521C83.9362 15.8065 83.3121 16.2401 82.4894 16.5528C81.6809 16.8513 80.7163 17.0006 79.5958 17.0006Z" fill="#171717"/>
<path d="M56.8789 2.33792V4.3826L60.2029 2.94562V1L56.8789 2.33792Z" fill="#171717" stroke="#171717" stroke-width="0.118715"/>
<path d="M6.15039 2.36523C8.68236 2.36523 9.94835 2.63726 11.9378 4.27364" stroke="#171717" stroke-width="2.17026"/>
</svg>
