<svg width="40" height="41" viewBox="0 0 40 41" fill="none" xmlns="http://www.w3.org/2000/svg">
<g filter="url(#filter0_d_440_3118)">
<path fill-rule="evenodd" clip-rule="evenodd" d="M24.686 10.8945C24.6861 11.5373 24.5595 12.1739 24.3136 12.7678C24.0676 13.3617 23.7071 13.9013 23.2526 14.3559C22.7981 14.8105 22.2586 15.1711 21.6647 15.4172C21.0708 15.6633 20.4343 15.7899 19.7915 15.79C18.4933 15.7901 17.2481 15.2745 16.3301 14.3566C15.412 13.4387 14.8961 12.1937 14.896 10.8955C14.8959 10.2527 15.0225 9.61614 15.2684 9.02223C15.5144 8.42831 15.8749 7.88866 16.3294 7.43407C17.2473 6.51598 18.4923 6.00013 19.7905 6C21.0887 5.99987 22.3338 6.51546 23.2519 7.43336C24.17 8.35126 24.6859 9.59627 24.686 10.8945ZM19.791 17.2875C12.742 17.2875 10 21.7735 10 23.8605C10 25.9465 15.837 26.5025 19.791 26.5025C23.745 26.5025 29.582 25.9465 29.582 23.8605C29.582 21.7735 26.84 17.2875 19.791 17.2875Z" fill="white"/>
</g>
<defs>
<filter id="filter0_d_440_3118" x="0" y="0" width="39.582" height="40.502" filterUnits="userSpaceOnUse" color-interpolation-filters="sRGB">
<feFlood flood-opacity="0" result="BackgroundImageFix"/>
<feColorMatrix in="SourceAlpha" type="matrix" values="0 0 0 0 0 0 0 0 0 0 0 0 0 0 0 0 0 0 127 0" result="hardAlpha"/>
<feOffset dy="4"/>
<feGaussianBlur stdDeviation="5"/>
<feComposite in2="hardAlpha" operator="out"/>
<feColorMatrix type="matrix" values="0 0 0 0 0 0 0 0 0 0 0 0 0 0 0 0 0 0 0.1 0"/>
<feBlend mode="normal" in2="BackgroundImageFix" result="effect1_dropShadow_440_3118"/>
<feBlend mode="normal" in="SourceGraphic" in2="effect1_dropShadow_440_3118" result="shape"/>
</filter>
</defs>
</svg>
